<svg xmlns="http://www.w3.org/2000/svg" width="100%" height="100%" viewBox="0 0 512 330" fill-rule="evenodd" stroke-linejoin="round" stroke-miterlimit="2" xmlns:v="https://vecta.io/nano"><style><![CDATA[.B{font-family:ArialMT, Arial, sans-serif}.C{font-size:81.042px}.D{fill-rule:nonzero}]]></style><path d="M-.002-.001h512.001v330H-.002z" fill="#0a4445"/><g transform="matrix(1 -.000988 .000988 1 -31.202 16.9352)" class="D"><g fill="#fff"><path d="M570.85 379.782l12.953 6.245c1.314.634 29.428 14.835 48.532-13.048l-91.311-45.635c10.123 17.1 20.084 34.597 29.816 52.441m-84.374-224.006l-.05-.156.05.156m118.232 249.869c-3.632-.461-29.761-4.755-29.761-4.755-26.089-49.108-50.48-89.395-69.514-119.071l-37.017-59.476c5.866-7.333 22.102-31.551 11.882-64.838 0 0-.779-2.821-1.485-4.998l-13.846-42.68 157.004 56.728c-6.115-10.584-37.117-55.262-103.739-87.157 0 0-55.892-26.771-82.615-18.102-4.496 1.459-24.142 9.522-14.966 37.808l16.534 50.965s3.568 10.468-4.851 13.199l-2.037.661-32.481-47.236-4.352-6.1c-14.755-20.957-27.855-24.543-36.477-25.777-5.982-.86-14.449-.281-24.996 3.312-27.563 9.452-29.503 21.896-28.63 25.952 1.542 6.909 5.989 14.038 7.641 16.816-.49-2.299-1.282-4.587-.159-7.595 1.082-3.033 4.66-6.209 9.681-7.838l20.238-6.566s2.534-.822 3.206 1.248c.666 2.052-1.868 2.874-1.868 2.874l-18.475 5.994c-4.078 1.323-6.779 3.259-7.98 5.765-.177.295-.253.592-.336.86.185-.161.389-.332.643-.498 1.078-.675 2.52-1.177 3.899-1.453 2.69-.445 11.236-.365 12.942 5.738.243.91.396 2.058.357 2.889-1.089 21.798-1.701 43.115-1.977 63.79l-6.811 2.21c-8.387 2.721-11.648-7.848-11.648-7.848l-16.535-50.968c-9.175-28.283-29.815-23.279-34.327-21.816-26.738 8.674-56.271 63.158-56.271 63.158-35.197 64.928-34.066 119.296-32.784 131.447l93.802-138.094 13.847 42.681c.706 2.176 1.731 4.917 1.731 4.917 12.153 35.565 43.064 44.489 49.468 45.961 3.07 121.665 16.771 206.629 16.771 206.629l-21.333 21.33c-.142.147-5.979 5.251-.41 11.266 0 0 2.5 3.014 6.216 2.526 0 0-4.754-3.7-1.611-6.649l17.045-14.716-6.802 18.666c-.088.201-3.094 7.354 4.55 10.339 0 0 3.53 1.621 6.675-.423 0 0-5.911-1.274-4.327-5.289l10.095-22.038-.326 18.733c-.01.227-.808 7.927 7.349 8.543 0 0 3.88.535 6.269-2.341 0 0-6.026.486-5.683-3.789l1.203-11.078s.879-10.548 5.924-13.21l2.79-1.402c11.05-5.514 16.34-5.42 16.34-5.42 4.975.075 3.79 6.949 3.79 6.949 3.557-2.45 3.339-6.974 3.339-6.974.022-8.459-8.83-9.325-9.062-9.354l-7.431-.852s34.439-49.621 57.522-96.67c46.307 24.535 103.35 44.48 103.35 44.48l-5.515 5.052c-.185.161-6.841 6.063-1.875 12.903 0 0 2.506 3.778 6.81 3.682 0 0-4.994-4.866-1.011-7.85 0 0 4.242-3.188 16.426-5.21l3.066-.497c5.659-.811 12.535 7.221 12.535 7.221l7.509 8.252c2.767 3.267-2.376 6.404-2.376 6.404 3.613.929 6.45-1.785 6.45-1.785 6.255-5.292 1.074-11.055.95-11.235-2.412-2.801-11.276-14.969-11.276-14.969l21.111 11.914c3.621 2.323-.399 6.823-.399 6.823 3.731-.186 5.667-3.58 5.667-3.58 4.436-6.904-2.227-10.921-2.401-11.036-3.105-1.996-16.447-11.123-16.447-11.123l22.407 1.917c4.305.532 2.613 6.324 2.613 6.324 3.28-1.78 3.549-5.694 3.549-5.694.994-8.142-6.727-8.846-6.961-8.875M333.987 103.95c-2.857.927-5.955-.627-6.898-3.532a5.5 5.5 0 0 1 3.516-6.893 5.49 5.49 0 0 1 6.896 3.515c.942 2.904-.638 5.977-3.514 6.91m43.123 91.607c1.647 1.704 4.149 2.426 6.545 1.649 2.41-.782 4.024-2.859 4.354-5.204a10.29 10.29 0 0 1 1.73 3.23c1.413 4.356-.163 8.759-3.531 9.851-3.337 1.083-7.181-1.562-8.594-5.918-.401-1.236-.558-2.448-.503-3.609m-62.074 23.912c-.401-1.237-.557-2.449-.521-3.603a6.36 6.36 0 0 0 6.562 1.643 6.41 6.41 0 0 0 4.354-5.204c.721.91 1.316 1.997 1.717 3.234 1.413 4.356-.179 8.764-3.516 9.847s-7.182-1.561-8.595-5.917m35.748 108.196c1.627 1.692 4.162 2.406 6.557 1.628s4.029-2.843 4.359-5.186c.716.894 1.321 2.012 1.722 3.249 1.408 4.34-.189 8.733-3.526 9.816s-7.177-1.546-8.585-5.886a10.61 10.61 0 0 1-.527-3.62m15.912 99.945c-3.337 1.083-7.175-1.547-8.582-5.886a10.8 10.8 0 0 1-.53-3.637c1.647 1.705 4.167 2.421 6.562 1.643a6.38 6.38 0 0 0 4.357-5.204 10.63 10.63 0 0 1 1.74 3.261c1.408 4.34-.189 8.732-3.542 9.819m11.333-34.526c-3.337 1.083-7.177-1.546-8.59-5.902-.391-1.205-.562-2.464-.521-3.603 1.627 1.693 4.162 2.406 6.557 1.628s4.029-2.842 4.359-5.186a10.33 10.33 0 0 1 1.717 3.233c1.413 4.356-.184 8.748-3.522 9.831m19.961 24.375c-3.337 1.083-7.176-1.547-8.584-5.886-.401-1.237-.562-2.465-.517-3.641a6.33 6.33 0 0 0 6.545 1.649c2.428-.788 4.024-2.858 4.355-5.203a10.6 10.6 0 0 1 1.723 3.267c1.408 4.34-.172 8.726-3.526 9.814m-13.379-57.394c-3.354 1.088-7.192-1.541-8.6-5.882-.401-1.236-.567-2.48-.518-3.64a6.36 6.36 0 0 0 10.905-3.555c.722.908 1.322 2.029 1.723 3.265 1.409 4.342-.173 8.729-3.51 9.812m-18.131-55.889c-3.354 1.088-7.197-1.556-8.61-5.914-.396-1.22-.556-2.448-.503-3.593 1.642 1.689 4.147 2.41 6.557 1.628s4.029-2.842 4.337-5.215c.722.908 1.318 2.014 1.719 3.25 1.414 4.357-.163 8.76-3.5 9.842m-18.141-55.92c-3.354 1.088-7.192-1.541-8.6-5.882-.401-1.236-.562-2.464-.513-3.624 1.647 1.705 4.152 2.425 6.562 1.643s4.029-2.842 4.337-5.215c.728.925 1.322 2.029 1.723 3.265 1.408 4.341-.173 8.729-3.51 9.812m60.982 134.661c-3.354 1.088-7.193-1.541-8.606-5.897-.391-1.205-.578-2.459-.503-3.609 1.626 1.694 4.146 2.411 6.556 1.629a6.36 6.36 0 0 0 4.348-5.183c.739.904 1.328 1.993 1.729 3.229 1.414 4.357-.167 8.743-3.521 9.832m-18.137-55.906c-3.354 1.088-7.192-1.541-8.6-5.88-.401-1.237-.582-2.475-.508-3.626 1.627 1.693 4.145 2.411 6.557 1.628a6.36 6.36 0 0 0 4.346-5.182c.733.889 1.334 2.009 1.735 3.246 1.408 4.34-.172 8.726-3.526 9.814m-18.132-55.89c-3.355 1.088-7.193-1.541-8.606-5.896-.401-1.237-.578-2.46-.504-3.609 1.632 1.708 4.152 2.425 6.562 1.643 2.396-.777 4.024-2.859 4.337-5.216.744.92 1.334 2.009 1.735 3.246 1.413 4.356-.168 8.743-3.522 9.831m-18.131-55.888c-3.354 1.088-7.198-1.557-8.611-5.913-.401-1.237-.572-2.444-.502-3.609a6.34 6.34 0 0 0 6.561 1.644c2.396-.777 4.024-2.859 4.342-5.199.737.903 1.327 1.992 1.728 3.229 1.413 4.356-.16 8.759-3.515 9.847m60.981 134.662c-3.368 1.093-7.208-1.536-8.616-5.876a10.44 10.44 0 0 1-.518-3.64c1.647 1.704 4.168 2.42 6.575 1.639 2.394-.777 4.024-2.859 4.325-5.193.737.903 1.338 2.023 1.739 3.26 1.408 4.34-.172 8.727-3.509 9.81M397.782 294c-3.37 1.093-7.214-1.551-8.628-5.908-.396-1.221-.556-2.448-.502-3.593a6.4 6.4 0 0 0 6.569 1.625 6.29 6.29 0 0 0 4.32-5.209c.738.903 1.333 2.008 1.735 3.245 1.414 4.357-.161 8.759-3.499 9.842m-18.141-55.921c-3.37 1.093-7.209-1.536-8.617-5.876-.401-1.236-.562-2.464-.512-3.624a6.38 6.38 0 0 0 6.574 1.64 6.29 6.29 0 0 0 4.321-5.21c.742.919 1.338 2.024 1.739 3.26 1.408 4.341-.173 8.728-3.51 9.81m-18.13-55.888c-3.368 1.093-7.214-1.551-8.622-5.892-.401-1.236-.562-2.464-.512-3.624a6.38 6.38 0 0 0 6.574 1.64c2.396-.777 4.029-2.842 4.354-5.202.706.914 1.305 2.018 1.706 3.254 1.408 4.341-.167 8.743-3.504 9.826m60.966 134.667c-3.337 1.083-7.176-1.547-8.584-5.886-.401-1.237-.567-2.48-.508-3.626 1.642 1.689 4.145 2.411 6.54 1.634 2.41-.782 4.029-2.842 4.359-5.186.718.894 1.334 2.009 1.735 3.246 1.408 4.337-.171 8.725-3.542 9.818m-18.131-55.889c-3.337 1.083-7.176-1.547-8.589-5.902-.401-1.237-.562-2.465-.503-3.609 1.647 1.704 4.149 2.426 6.545 1.649 2.41-.782 4.024-2.859 4.348-5.22a10.46 10.46 0 0 1 1.735 3.246c1.414 4.355-.166 8.742-3.537 9.835m28.747-52.69a6.4 6.4 0 0 0 6.572 1.64c2.412-.782 4.029-2.842 4.35-5.219.726.924 1.322 2.029 1.723 3.265 1.408 4.341-.189 8.733-3.526 9.816s-7.209-1.536-8.617-5.876c-.401-1.236-.53-2.475-.508-3.625m18.145 55.92a6.42 6.42 0 0 0 6.569 1.625 6.35 6.35 0 0 0 4.349-5.218c.721.908 1.316 2.013 1.717 3.25 1.414 4.357-.177 8.765-3.515 9.847s-7.213-1.551-8.626-5.908c-.396-1.221-.526-2.458-.499-3.594m-42.84-78.792a6.38 6.38 0 0 0 6.562 1.643 6.39 6.39 0 0 0 4.353-5.202c.722.908 1.312 1.997 1.713 3.234 1.413 4.356-.161 8.759-3.516 9.848-3.337 1.083-7.197-1.558-8.61-5.914a10.6 10.6 0 0 1-.506-3.608m38.801 154.337c-3.354 1.088-7.176-1.547-8.584-5.887-.401-1.237-.579-2.476-.528-3.636 1.647 1.704 4.165 2.421 6.562 1.643a6.36 6.36 0 0 0 4.341-5.198c.737.903 1.338 2.023 1.739 3.26 1.408 4.34-.172 8.727-3.525 9.815m-18.132-55.888c-3.355 1.088-7.182-1.561-8.595-5.918-.396-1.221-.569-2.444-.514-3.589 1.642 1.687 4.163 2.405 6.557 1.628 2.41-.782 4.029-2.843 4.337-5.215.738.903 1.333 2.008 1.735 3.245 1.414 4.357-.163 8.76-3.516 9.848m-18.143-55.921c-3.354 1.088-7.176-1.547-8.584-5.887-.401-1.236-.574-2.46-.523-3.62 1.646 1.705 4.165 2.421 6.561 1.644a6.31 6.31 0 0 0 4.336-5.214 10.16 10.16 0 0 1 1.739 3.26c1.408 4.341-.172 8.727-3.525 9.815m-18.132-55.888c-3.355 1.088-7.181-1.562-8.589-5.903-.401-1.236-.574-2.46-.524-3.62 1.647 1.705 4.167 2.421 6.562 1.643a6.33 6.33 0 0 0 4.342-5.199c.737.904 1.334 2.009 1.735 3.245 1.408 4.341-.168 8.744-3.521 9.832m79.1 190.572c-3.337 1.083-7.176-1.547-8.589-5.903-.391-1.205-.562-2.464-.506-3.608 1.61 1.699 4.145 2.411 6.54 1.634 2.426-.787 4.029-2.842 4.359-5.186.723.909 1.312 1.998 1.713 3.234 1.414 4.357-.168 8.744-3.521 9.832m-18.12-55.912c-3.337 1.083-7.192-1.541-8.6-5.88a10.68 10.68 0 0 1-.513-3.625c1.627 1.693 4.179 2.4 6.557 1.628a6.38 6.38 0 0 0 4.36-5.187c.715.895 1.316 2.014 1.718 3.252 1.408 4.34-.172 8.726-3.526 9.814m-18.131-55.891c-3.337 1.083-7.177-1.546-8.59-5.901-.401-1.237-.562-2.465-.506-3.608 1.616 1.714 4.167 2.421 6.546 1.649 2.425-.787 4.024-2.859 4.347-5.219a10.44 10.44 0 0 1 1.719 3.251c1.413 4.356-.167 8.742-3.52 9.83m34.239 72.88c-.401-1.237-.535-2.491-.514-3.642a6.4 6.4 0 0 0 6.572 1.64c2.412-.782 4.024-2.858 4.355-5.203.721.91 1.322 2.029 1.724 3.266 1.408 4.34-.189 8.732-3.527 9.814s-7.209-1.536-8.617-5.875m31.481 60.245c-3.354 1.088-7.192-1.541-8.61-5.912-.396-1.221-.569-2.445-.503-3.61a6.34 6.34 0 0 0 6.562 1.644c2.394-.777 4.024-2.859 4.358-5.187a10.2 10.2 0 0 1 1.712 3.218c1.418 4.371-.162 8.758-3.515 9.846m1.85-31.503c-3.366 1.092-7.193-1.541-8.606-5.897-.391-1.205-.573-2.462-.506-3.608a6.34 6.34 0 0 0 10.889-3.549c.737.903 1.328 1.992 1.729 3.229 1.413 4.355-.168 8.743-3.506 9.825m-18.122-55.91c-3.366 1.092-7.209-1.536-8.617-5.876-.401-1.236-.566-2.479-.512-3.624a6.38 6.38 0 0 0 6.57 1.624c2.394-.777 4.012-2.837 4.33-5.177.747.883 1.334 2.009 1.735 3.245 1.408 4.341-.172 8.727-3.509 9.81m-36.26-111.773c-3.366 1.092-7.214-1.551-8.628-5.908a10.22 10.22 0 0 1-.506-3.608 6.36 6.36 0 0 0 6.572 1.64c2.396-.777 4.008-2.854 4.326-5.194.753.899 1.328 1.993 1.729 3.229 1.414 4.357-.163 8.76-3.5 9.842m83.818 189.042c-3.337 1.083-7.176-1.547-8.594-5.919-.396-1.22-.556-2.448-.504-3.609 1.647 1.705 4.152 2.425 6.546 1.649 2.41-.782 4.024-2.859 4.359-5.186.716.894 1.328 1.993 1.724 3.213 1.418 4.372-.161 8.759-3.531 9.852m-47.708-223.28l1.54 5.114a82.5 82.5 0 0 1 2.264 9.134l94.03 35.654c1.841.616 31.167 11.127 48.811-19.064l-155.524-58.185 8.871 27.344m-.042 55.684l116.014 48.155c2.802.902 30.056 9.97 47.622-18.932-1.189-.502-97.877-38.563-158.743-62.976 1.117 13.28-1.42 24.721-4.893 33.753m-8.629 16.402l19.309 30.785 106.58 48.297c1.909.83 30.796 13.674 49.683-16.049-1.266-.529-108.537-47.798-169.096-74.421a76.95 76.95 0 0 1-6.479 11.39"/><path d="M510.914 278.453l24.041 38.744 62.534 29.19c2.739 1.125 29.016 12.44 50.08-14.299-1.054-.512-86.123-40.063-145.227-67.616l8.567 13.987M268.188 410.032c1.448-2.434 37.182-65.263 58.457-102.519l-1.305-34.858a79.21 79.21 0 0 1-13.599-5.97L218.54 426.202c32.769 12.964 48.6-14.385 49.658-16.18m-26.783-39.033c3.63-5.276 44.818-72.829 65.638-107.07-8.134-5.285-16.889-13.063-23.749-24.478l-91.569 144.182c31.202 13.081 47.943-10.258 49.683-12.634m-67.69-41.085c32.022 14.076 49.562-11.639 50.705-13.223 1.87-2.656 36.02-54.693 55.192-84.065-1.292-2.72-2.479-5.633-3.53-8.722-.08-.247-1.771-5.041-1.771-5.041l-8.871-27.344-91.715 138.393"/></g><path d="M293.265 100.051c-1.725.849-3.729 2.097-6.648 4.142l-2.318 1.575-1.56 1.052c-.068.045.551 1.728.856 2.351.473.958.78 1.252 1.826 1.769 1.781.882 2.114 1.13 2.874 2.165 1.695 2.303 3.903 4.796 5.922 6.682 1.258 1.18 2.502 1.702 4.443 1.859 3.312.275 7.067-.743 10.665-2.878 2.197-1.311 3.69-3.08 4.661-5.521.691-1.741 1.065-3.548 1.248-6.025.095-1.257.077-1.746-.144-3.403-.176-1.341-.215-1.908-.169-2.643.056-1.045.242-1.347 1.04-1.719.252-.116.814-.333 1.243-.482.911-.309 1.173-.331 1.638-.127.554.237.849.53 2.31 2.336 2.42 2.977 4.815 4.908 7.334 5.899a10.07 10.07 0 0 0 3.304.757c2.416.174 4.829-.24 7.251-1.246 4.479-1.861 7.395-5.248 7.946-9.229.199-1.41.136-2.562-.309-5.661-.52-3.628-.57-4.346-.368-5.33a4.01 4.01 0 0 1 .585-1.328c.319-.456.321-.451-.44-2.253l-.465-1.134c-.272-.683-.579-.781-1.707-.538-.907.192-1.55.298-3.098.491-1.796.221-2.076.268-3.518.619-3.583.865-4.503 1.15-6.293 1.939-2.379 1.052-3.945 1.98-8.462 4.999-3.048 2.04-4.33 2.844-5.851 3.672-1.167.635-2.653 1.31-3.754 1.704-1.968.708-2.968.956-6.171 1.525-2.957.524-3.546.648-5.473 1.149-4.092 1.071-6.385 1.845-8.399 2.832z"/></g><g transform="matrix(.699064 0 0 .699064 98.4948 22.0263)" class="B C"><g transform="matrix(.814928 0 0 .814928 -157.148 -16.6182)"><text fill="#fff" x="276.22" y="128.803">BT</text><text fill="#fff" transform="translate(375.306 128.803)" x="0" y="0">-T<tspan x="75.027px" y="0px">O</tspan></text></g><text fill="#fff" transform="matrix(.814928 0 0 .814928 67.9518 147.768)" x="0" y="0">API</text></g></svg>